<svg xmlns="http://www.w3.org/2000/svg" xmlns:xlink="http://www.w3.org/1999/xlink" width="500" zoomAndPan="magnify" viewBox="0 0 375 374.999991" height="500" preserveAspectRatio="xMidYMid meet" version="1.0"><defs><g/><clipPath id="44fc8f8f5b"><path d="M 56.488281 151.464844 L 318.167969 151.464844 L 318.167969 223.464844 L 56.488281 223.464844 Z M 56.488281 151.464844 " clip-rule="nonzero"/></clipPath><clipPath id="55c48fb484"><path d="M 63.558594 158.238281 L 187.332031 158.238281 L 187.332031 216.761719 L 63.558594 216.761719 Z M 63.558594 158.238281 " clip-rule="nonzero"/></clipPath></defs><g clip-path="url(#44fc8f8f5b)"><path stroke-linecap="butt" transform="matrix(0.75, 0, 0, 0.75, 56.489269, 151.465449)" fill="none" stroke-linejoin="miter" d="M -0.00131672 -0.000807338 L 348.904956 -0.000807338 L 348.904956 96.092949 L -0.00131672 96.092949 Z M -0.00131672 -0.000807338 " stroke="#000000" stroke-width="6" stroke-opacity="1" stroke-miterlimit="4"/></g><g clip-path="url(#55c48fb484)"><path fill="#000000" d="M 63.558594 158.238281 L 187.332031 158.238281 L 187.332031 216.761719 L 63.558594 216.761719 Z M 63.558594 158.238281 " fill-opacity="1" fill-rule="nonzero"/></g><g fill="#ffffff" fill-opacity="1"><g transform="translate(102.442694, 196.618259)"><g><path d="M 2.863281 0 L 5.335938 0 L 5.335938 -15.054688 L 11.851562 -5.222656 L 13.875 -5.222656 L 20.390625 -15.027344 L 20.390625 0 L 22.863281 0 L 22.863281 -19.660156 L 20.558594 -19.660156 L 12.890625 -8.003906 L 5.167969 -19.660156 L 2.863281 -19.660156 Z M 2.863281 0 "/></g></g></g><g fill="#ffffff" fill-opacity="1"><g transform="translate(130.297011, 196.618259)"><g><path d="M 7.863281 0 L 10.28125 0 L 10.28125 -7.078125 L 17.667969 -19.660156 L 14.886719 -19.660156 L 9.101562 -9.71875 L 6.542969 -14.15625 L 3.34375 -19.660156 L 0.476562 -19.660156 L 7.863281 -7.078125 Z M 7.863281 0 "/></g></g></g><g fill="#000000" fill-opacity="1"><g transform="translate(206.727822, 196.769512)"><g><path d="M 2.078125 0 L 7.695312 0 L 7.695312 -9.972656 L 11.488281 -4.664062 L 15.167969 -4.664062 L 18.929688 -9.941406 L 18.929688 0 L 24.546875 0 L 24.546875 -19.660156 L 19.941406 -19.660156 L 13.3125 -10.308594 L 6.710938 -19.660156 L 2.078125 -19.660156 Z M 2.078125 0 "/></g></g></g><g fill="#000000" fill-opacity="1"><g transform="translate(233.352419, 196.769512)"><g><path d="M 10.53125 0.421875 C 15.839844 0.421875 19.128906 -2.808594 19.128906 -8.089844 L 19.128906 -19.660156 L 13.480469 -19.660156 L 13.480469 -8.453125 C 13.480469 -6.121094 12.5 -4.886719 10.53125 -4.886719 C 8.566406 -4.886719 7.582031 -6.121094 7.582031 -8.453125 L 7.582031 -19.660156 L 1.910156 -19.660156 L 1.910156 -8.089844 C 1.910156 -2.808594 5.222656 0.421875 10.53125 0.421875 Z M 10.53125 0.421875 "/></g></g></g><g fill="#000000" fill-opacity="1"><g transform="translate(254.416185, 196.769512)"><g><path d="M 2.078125 0 L 7.695312 0 L 7.695312 -10.027344 L 15.167969 0 L 19.773438 0 L 19.773438 -19.660156 L 14.183594 -19.660156 L 14.183594 -9.691406 L 6.710938 -19.660156 L 2.078125 -19.660156 Z M 2.078125 0 "/></g></g></g><g fill="#000000" fill-opacity="1"><g transform="translate(276.294412, 196.769512)"><g><path d="M 11.460938 0.421875 C 18.226562 0.421875 22.46875 -4.492188 21.851562 -11.402344 L 10.476562 -11.402344 L 10.476562 -7.414062 L 15.898438 -7.414062 C 15.335938 -5.757812 13.761719 -4.632812 11.515625 -4.632812 C 8.371094 -4.632812 6.542969 -6.851562 6.542969 -9.832031 C 6.542969 -12.917969 8.539062 -15.027344 11.460938 -15.027344 C 13.199219 -15.027344 14.6875 -14.269531 15.449219 -13.03125 L 21.484375 -13.03125 C 20.335938 -17.328125 16.347656 -20.082031 11.375 -20.082031 C 5.195312 -20.082031 0.953125 -15.867188 0.953125 -9.832031 C 0.953125 -3.761719 5.222656 0.421875 11.460938 0.421875 Z M 11.460938 0.421875 "/></g></g></g></svg>